#!OML:ASF F:\VICON\USERDATA\INSTALL\rory3\rory3.ASF
:FULLY-SPECIFIED
:DEGREES
77
root 0.44688190890122387 18.195707586691935 15.583376851798123 8.91531874379838 -0.8628208714292497 -1.8048727629729058
lfemur -9.442566487204191 7.838618508253307 -17.059674066643566
ltibia 12.047469583771065
lfoot -7.54918570511459 5.047444714919667
ltoes -6.233343627221748
rfemur -10.184449228368221 -2.4999993924476906 20.300797827348326
rtibia 14.207548954039893
rfoot -11.352437930817256 1.5686380964959428
rtoes 15.197220898197028
lowerback -4.429806135765632 0.058865366785135924 -0.2527106695331691
upperback 0.9409131822574108 0.0012602391197230056 1.1306401607218806
thorax 4.970260500041713 -0.013728250269655691 1.3796085794922959
lowerneck -10.782520533653745 -0.3260470585712192 -2.127292539278669
upperneck 30.63742153566263 -0.6405878237240344 2.4495824895419958
head 12.026592572395684 -0.2394849033042593 1.1178060015102835
lclavicle 1.2258850931909542e-15 -1.2062211386815157e-15
lhumerus -23.678133003427998 -6.950142668850115 89.31058484769687
lradius 23.043897616579855
lwrist 8.925359808010752
lhand -23.130442653417276 -4.306386864025845
lfingers 7.125019999999998
lthumb 3.317020979096692 25.65104963155595
rclavicle 1.2258850931909542e-15 -1.2062211386815157e-15
rhumerus -24.434649793121356 -11.925018473242213 -80.87889995089498
rradius 25.36046337272897
rwrist 37.22015436711054
rhand -17.47195215008449 -26.804075669083023
rfingers 7.125019999999998
rthumb 8.77979097666587 -56.59894662958463
78
root 0.44626552715750206 18.184548111320826 15.528395804824266 8.842629777445216 -0.9783652919870995 -1.8012299308683999
lfemur -9.6385971273154 7.816368180210187 -17.057977983063086
ltibia 12.12640200452385
lfoot -7.649979702256332 5.2320760231532475
ltoes -6.284602273588337
rfemur -10.456733885710506 -2.4173089900079967 20.32366300398845
rtibia 14.342399292120575
rfoot -11.469242164030485 1.6309175018924984
rtoes 15.067472420067759
lowerback -4.433460541722842 0.01757128466328048 -0.2909312383581881
upperback 0.910257471851696 -0.0591117022724246 1.1411654988327546
thorax 4.935640908265746 -0.04672414659740906 1.403721648226741
lowerneck -10.873251911159102 -0.27217472869658343 -2.1344194137315036
upperneck 30.435222005371806 -0.526518332001966 2.3765717750427475
head 11.9743510768879 -0.2056052597735081 1.1082895407846296
lclavicle 1.2004981110416591e-15 -1.2342297835926934e-15
lhumerus -23.07134611228198 -7.181250959304573 89.54309142695656
lradius 23.092053781680537
lwrist 8.903120929767448
lhand -23.26281637495499 -4.601975439496707
lfingers 7.125019999999998
lthumb 3.189209120491721 25.35819076552764
rclavicle 1.2004981110416591e-15 -1.2342297835926934e-15
rhumerus -24.305880047500064 -11.484398749216204 -81.07436384790265
rradius 25.64005861613892
rwrist 36.77833219254095
rhand -17.46358282515185 -26.73939892208829
rfingers 7.125019999999998
rthumb 8.787882986618113 -56.533948949022474
79
root 0.447704396359939 18.19387923393426 15.510762084586576 8.804359845123077 -1.070215379344878 -1.787917686060785
lfemur -9.68819694461928 7.9025341571185965 -17.033010859884342
ltibia 12.773626883082967
lfoot -7.678850440242177 5.448775330494035
ltoes -6.263646189436225
rfemur -10.589652068721144 -2.2895670753333994 20.381188167598133
rtibia 15.079342413771313
rfoot -11.509459567481018 1.7210431815871576
rtoes 14.933320727597497
lowerback -4.244909830635071 -0.005740241843843641 -0.3143324063036238
upperback 0.9340273564315993 -0.09460099521663398 1.1642484508455004
thorax 4.903186843475275 -0.06511524808347136 1.441771745748409
lowerneck -10.941467283439009 -0.2136331886356796 -2.1266807567650594
upperneck 30.31478788914083 -0.400116966813136 2.3035820438732384
head 11.95022354148224 -0.16773116979155356 1.0977013191958886
lclavicle 1.308495666665822e-15 -1.1155947566379044e-15
lhumerus -22.541475443259593 -7.0347880651781445 89.80748116969268
lradius 23.179021916932154
lwrist 8.939557306286673
lhand -23.34193952084062 -4.814177610940916
lfingers 7.125019999999998
lthumb 3.112813209289027 25.14770505258545
rclavicle 1.308495666665822e-15 -1.1155947566379044e-15
rhumerus -24.11027445482011 -11.079196719470355 -81.19776159448159
rradius 26.054245941957042
rwrist 36.4132700907242
rhand -17.41552994057979 -26.688109003983655
rfingers 7.125019999999998
rthumb 8.834254242280783 -56.48154419181935
80
root 0.45140356127741516 18.205801613936547 15.706949619563803 8.679411686410415 -1.144266745222811 -1.7758960537847615
lfemur -9.328930254875626 8.013329013249695 -16.9750417617072
ltibia 13.382536852734617
lfoot -7.664342732089757 5.661268998779946
ltoes -6.207520858521518
rfemur -10.31238846915667 -2.1683640761541914 20.42942158568748
rtibia 15.764718972487648
rfoot -11.510240385035269 1.7770838685647554
rtoes 14.78140507132461
lowerback -4.1226809541496925 -0.018524804282109827 -0.2991274924577242
upperback 0.9506559872810729 -0.11001764810080072 1.1850023837727852
thorax 4.961455492554973 -0.07330412586463585 1.4644212626398088
lowerneck -10.936622696689852 -0.14792711382377538 -2.1124163960949103
upperneck 30.297128177812258 -0.2678811408538358 2.24882813548292
head 11.956168072316549 -0.1273538406949822 1.0919464295564136
lclavicle 1.4761066388370946e-15 -9.313633293420385e-16
lhumerus -22.193301094498874 -6.799903152856326 90.04644269172974
lradius 23.350574943728798
lwrist 9.041347324867276
lhand -23.35834975460111 -4.915196267189354
lfingers 7.125019999999998
lthumb 3.0969730276283274 25.047399395042234
rclavicle 1.4761066388370946e-15 -9.313633293420385e-16
rhumerus -23.997481055802794 -10.747773840693663 -81.24944559165763
rradius 26.512620930809938
rwrist 36.167829865802275
rhand -17.364589050171155 -26.657399838606793
rfingers 7.125019999999998
rthumb 8.883404837870373 -56.449553004245736
